<?xml version="1.0" encoding="utf-8"?>
<!-- Generator: Adobe Illustrator 19.2.0, SVG Export Plug-In . SVG Version: 6.00 Build 0)  -->
<svg version="1.1" id="Layer_1" xmlns="http://www.w3.org/2000/svg" xmlns:xlink="http://www.w3.org/1999/xlink" x="0px" y="0px"
	 viewBox="0 0 342.4 342.4" style="enable-background:new 0 0 342.4 342.4;" xml:space="preserve">
<style type="text/css">
	.st0{fill:#F0F0F0;}
	.st1{fill:#282828;}
	.st2{fill:#4879BC;}
</style>
<circle class="st0" cx="171.2" cy="171.2" r="171.2"/>
<g>
	<path class="st1" d="M76,55.1V79h25.2V55.1h13.7v62.3h-13.7V90.5H76v26.9H62.3V55.1H76z M153.4,55.1l23.3,62.3h-14.2l-4.7-13.9
		h-23.3l-4.9,13.9h-13.8l23.5-62.3C139.3,55.1,153.4,55.1,153.4,55.1z M154.2,93.3l-7.8-22.8h-0.2L138,93.3H154.2L154.2,93.3z
		 M214.6,71.7c-0.8-1.3-1.8-2.5-3.1-3.4c-1.2-1-2.6-1.8-4.1-2.3s-3.2-0.8-4.8-0.8c-3.1,0-5.7,0.6-7.8,1.8c-2.2,1.2-3.9,2.8-5.2,4.8
		s-2.3,4.3-2.9,6.8c-0.6,2.6-0.9,5.2-0.9,7.9c0,2.6,0.3,5.2,0.9,7.6c0.6,2.5,1.6,4.7,2.9,6.7c1.3,2,3.1,3.6,5.2,4.8
		c2.1,1.2,4.8,1.8,7.8,1.8c4.2,0,7.5-1.3,9.8-3.8c2.4-2.6,3.8-5.9,4.3-10.1H230c-0.3,3.9-1.2,7.4-2.7,10.6c-1.5,3.1-3.4,5.8-5.8,8
		c-2.4,2.2-5.2,3.9-8.4,5.1s-6.7,1.7-10.6,1.7c-4.8,0-9.1-0.8-12.9-2.5c-3.8-1.7-7-3.9-9.6-6.8s-4.6-6.3-6-10.2
		c-1.4-3.9-2.1-8.2-2.1-12.7c0-4.6,0.7-9,2.1-13c1.4-4,3.4-7.5,6-10.4c2.6-3,5.8-5.3,9.6-7s8.1-2.5,12.9-2.5c3.4,0,6.7,0.5,9.7,1.5
		s5.8,2.4,8.2,4.3c2.4,1.9,4.4,4.2,6,7c1.6,2.8,2.6,6,3,9.6h-13.3C216,74.5,215.5,73,214.6,71.7L214.6,71.7z M247.7,55.1v25.8
		L272,55.1h17.1l-24.3,24.6l26.7,37.7h-17.2l-18.8-28l-7.8,7.9v20.1H234V55.1H247.7L247.7,55.1z M68.8,157.3c0.6,1.1,1.3,2,2.3,2.7
		c0.9,0.7,2.1,1.2,3.3,1.5c1.3,0.3,2.6,0.5,4,0.5c0.9,0,1.9-0.1,3-0.2c1.1-0.2,2.1-0.5,3-0.9s1.7-1,2.3-1.8c0.6-0.8,0.9-1.8,0.9-2.9
		c0-1.3-0.4-2.3-1.2-3.1c-0.8-0.8-1.9-1.5-3.2-2s-2.8-1-4.5-1.4s-3.4-0.8-5.1-1.3c-1.8-0.4-3.5-1-5.2-1.6s-3.2-1.5-4.5-2.5
		c-1.3-1-2.4-2.3-3.2-3.8s-1.2-3.4-1.2-5.5c0-2.4,0.5-4.5,1.6-6.3c1-1.8,2.4-3.3,4.1-4.5s3.6-2.1,5.7-2.6c2.1-0.6,4.2-0.9,6.4-0.9
		c2.5,0,4.8,0.3,7.1,0.8c2.3,0.6,4.3,1.4,6.1,2.7c1.8,1.2,3.2,2.8,4.2,4.7s1.6,4.2,1.6,7H86c-0.1-1.4-0.4-2.6-0.9-3.5
		s-1.2-1.7-2-2.2s-1.8-0.9-2.9-1.1c-1.1-0.2-2.3-0.3-3.5-0.3c-0.8,0-1.7,0.1-2.5,0.3s-1.6,0.5-2.3,0.9c-0.7,0.4-1.2,1-1.7,1.7
		c-0.4,0.7-0.7,1.5-0.7,2.5c0,0.9,0.2,1.7,0.5,2.2c0.4,0.6,1,1.1,2.1,1.6c1,0.5,2.5,1,4.3,1.5s4.2,1.1,7.2,1.9
		c0.9,0.2,2.1,0.5,3.7,1s3.1,1.2,4.7,2.2c1.5,1,2.9,2.4,4,4.1c1.1,1.7,1.7,3.9,1.7,6.5c0,2.2-0.4,4.2-1.3,6
		c-0.8,1.9-2.1,3.5-3.7,4.8c-1.7,1.3-3.7,2.4-6.2,3.1c-2.4,0.7-5.3,1.1-8.5,1.1c-2.6,0-5.1-0.3-7.6-1c-2.4-0.6-4.6-1.6-6.5-3
		s-3.4-3.1-4.5-5.2c-1.1-2.1-1.6-4.6-1.6-7.5h10.1C67.9,154.9,68.2,156.2,68.8,157.3L68.8,157.3z M115.2,121.7l11.1,32.5h0.1
		l10.5-32.5h14.6V169h-9.7v-33.5h-0.1L130,169h-8l-11.6-33.2h-0.1V169h-9.7v-47.3H115.2L115.2,121.7z M167.4,121.7V169H157v-47.3
		H167.4L167.4,121.7z M168.9,130.5v-8.7h38.7v8.7h-14.2V169H183v-38.5H168.9z M219.4,121.7v18.1h19.1v-18.1h10.4V169h-10.4v-20.4
		h-19.1V169H209v-47.3H219.4L219.4,121.7z M262.6,157.3c0.6,1.1,1.3,2,2.3,2.7c0.9,0.7,2.1,1.2,3.3,1.5c1.3,0.3,2.6,0.5,4,0.5
		c0.9,0,1.9-0.1,3-0.2s2.1-0.5,3-0.9s1.7-1,2.3-1.8c0.6-0.8,0.9-1.8,0.9-2.9c0-1.3-0.4-2.3-1.2-3.1c-0.8-0.8-1.9-1.5-3.2-2
		s-2.8-1-4.5-1.4s-3.4-0.8-5.1-1.3c-1.8-0.4-3.5-1-5.2-1.6s-3.2-1.5-4.5-2.5s-2.4-2.3-3.2-3.8s-1.2-3.4-1.2-5.5
		c0-2.4,0.5-4.5,1.6-6.3c1-1.8,2.4-3.3,4.1-4.5s3.6-2.1,5.7-2.6c2.1-0.6,4.2-0.9,6.4-0.9c2.5,0,4.8,0.3,7.1,0.8
		c2.3,0.6,4.3,1.4,6.1,2.7c1.8,1.2,3.2,2.8,4.2,4.7s1.6,4.2,1.6,7H280c-0.1-1.4-0.4-2.6-0.9-3.5s-1.2-1.7-2-2.2s-1.8-0.9-2.9-1.1
		c-1.1-0.2-2.3-0.3-3.5-0.3c-0.8,0-1.7,0.1-2.5,0.3s-1.6,0.5-2.3,0.9c-0.7,0.4-1.2,1-1.7,1.7c-0.4,0.7-0.7,1.5-0.7,2.5
		c0,0.9,0.2,1.7,0.5,2.2c0.4,0.6,1,1.1,2.1,1.6c1,0.5,2.5,1,4.3,1.5s4.2,1.1,7.2,1.9c0.9,0.2,2.1,0.5,3.7,1s3.1,1.2,4.7,2.2
		c1.5,1,2.9,2.4,4,4.1c1.1,1.7,1.7,3.9,1.7,6.5c0,2.2-0.4,4.2-1.3,6c-0.8,1.9-2.1,3.5-3.7,4.8c-1.7,1.3-3.7,2.4-6.2,3.1
		c-2.4,0.7-5.3,1.1-8.5,1.1c-2.6,0-5.1-0.3-7.6-1c-2.4-0.6-4.6-1.6-6.5-3s-3.4-3.1-4.5-5.2c-1.1-2.1-1.6-4.6-1.6-7.5h10.1
		C261.8,154.9,262,156.2,262.6,157.3L262.6,157.3z"/>
</g>
<path class="st2" d="M61,196.9v-22.7h144.2v12.6h91.1c0,0-2.9,14.4-38,21.6c-26,5.3-53.1,3.7-53.1,34s38,37.9,38,37.9v15.2H190
	c0,0,0-22.7-22.8-22.7s-22.8,22.7-22.8,22.7H91.3v-15.2c0,0,37.9-7.6,37.9-37.9C129.3,204.5,61,196.9,61,196.9L61,196.9z"/>
</svg>
