<svg xmlns="http://www.w3.org/2000/svg" xmlns:xlink="http://www.w3.org/1999/xlink" width="64" height="64" id="svg4168" viewBox="0 0 64 64"><defs id="defs4170"><linearGradient id="linearGradient6150"><stop offset="0" id="stop6152" stop-color="#bc8f2d"/><stop offset="1" id="stop6154" stop-color="#bc8f2d" stop-opacity="0"/></linearGradient><linearGradient xlink:href="#linearGradient6150" id="linearGradient6156" x1="122.569" y1="81.47" x2="128.093" y2="81.47" gradientUnits="userSpaceOnUse"/></defs><g id="layer1"><g id="g5318" opacity=".85"><g id="g5320" fill-rule="evenodd"><path id="path5324" d="M2421.25 595.832l-39.21 654.868-294.12-674.477 333.33 19.609" fill="#fd8f14" transform="matrix(.01547 0 0 -.01682 -2.453 70.137)"/><path id="path5326" d="M2421.25 595.832l270.57 337.246-309.78 317.622 39.21-654.868" fill="#fd5f07" transform="matrix(.01547 0 0 -.01682 -2.453 70.137)"/><path id="path5328" d="M2691.82 933.078l-199.99 796.042-109.79-478.42 309.78-317.622" fill="#f94102" transform="matrix(.01547 0 0 -.01682 -2.453 70.137)"/><path id="path5330" d="M2382.04 1250.7l-176.48 721.56 286.27-243.14-109.79-478.42" fill="#f22f04" transform="matrix(.01547 0 0 -.01682 -2.453 70.137)"/><path id="path5332" d="M2382.04 1250.7l-247.06 156.86 70.58 564.7 176.48-721.56" fill="#f42702" transform="matrix(.01547 0 0 -.01682 -2.453 70.137)"/><path id="path5334" d="M2134.98 1407.56l-47.06-831.337 294.12 674.477-247.06 156.86" fill="#f63903" transform="matrix(.01547 0 0 -.01682 -2.453 70.137)"/><path id="path5336" d="M2087.92 576.223L1974.2 1113.46l160.78 294.1-47.06-831.337" fill="#f62b02" transform="matrix(.01547 0 0 -.01682 -2.453 70.137)"/><path id="path5338" d="M2087.92 576.223l-305.87 443.117-50.97-392.141 356.84-50.976" fill="#f3462d" transform="matrix(.01547 0 0 -.01682 -2.453 70.137)"/><path id="path5340" d="M1782.05 1019.34l192.15 94.12 113.72-537.237-305.87 443.117" fill="#fa790f" transform="matrix(.01547 0 0 -.01682 -2.453 70.137)"/><path id="path5342" d="M1782.05 1019.34l-258.81 345.09 207.84-737.231 50.97 392.141" fill="#f59911" transform="matrix(.01547 0 0 -.01682 -2.453 70.137)"/><path id="path5344" d="M1974.2 1113.46l-450.96 250.97 258.81-345.09 192.15 94.12" fill="#fdae0b" transform="matrix(.01547 0 0 -.01682 -2.453 70.137)"/><path id="path5346" d="M1974.2 1113.46l-250.97 607.81 411.75-313.71-160.78-294.1" fill="#fe7504" transform="matrix(.01547 0 0 -.01682 -2.453 70.137)"/><path id="path5348" d="M2691.82 933.078l43.14-207.851-313.71-129.395 270.57 337.246" fill="#fcb45c" transform="matrix(.01547 0 0 -.01682 -2.453 70.137)"/><path id="path5350" d="M2691.82 933.078l258.81 356.832-215.67-564.683-43.14 207.851" fill="#fd9d1a" transform="matrix(.01547 0 0 -.01682 -2.453 70.137)"/><path id="path5352" d="M2950.63 1289.91l-458.8 439.21 199.99-796.042 258.81 356.832" fill="#fe9e0e" transform="matrix(.01547 0 0 -.01682 -2.453 70.137)"/><path id="path5354" d="M2950.63 1289.91l152.95-266.66-368.62-298.023 215.67 564.683" fill="#fb4f21" transform="matrix(.01547 0 0 -.01682 -2.453 70.137)"/><path id="path5356" d="M3103.58 1023.25l249.86 341.18-57.71 188.23-192.15-529.41" fill="#fd9c2e" transform="matrix(.01547 0 0 -.01682 -2.453 70.137)"/><path id="path5358" d="M2950.63 1289.91l345.1 262.75-192.15-529.41-152.95 266.66" fill="#fc3406" transform="matrix(.01547 0 0 -.01682 -2.453 70.137)"/><path id="path5360" d="M3295.73 1552.66l168.61 392.14-110.9-580.37-57.71 188.23" fill="#fbd378" transform="matrix(.01547 0 0 -.01682 -2.453 70.137)"/><path id="path5362" d="M3295.73 1552.66l-94.12 235.27 262.73 156.87-168.61-392.14" fill="#fdc246" transform="matrix(.01547 0 0 -.01682 -2.453 70.137)"/><path id="path5364" d="M2491.83 1729.12l235.28 101.95 223.52-541.16-458.8 439.21" fill="#fe8f09" transform="matrix(.01547 0 0 -.01682 -2.453 70.137)"/><path id="path5366" d="M3295.73 1552.66l-568.62 278.41 223.52-541.16 345.1 262.75" fill="#fe5505" transform="matrix(.01547 0 0 -.01682 -2.453 70.137)"/><path id="path5368" d="M3201.61 1787.93l-474.5 43.14 568.62-278.41-94.12 235.27" fill="#fe6c14" transform="matrix(.01547 0 0 -.01682 -2.453 70.137)"/><path id="path5370" d="M3201.61 1787.93l-423.52 337.25-50.98-294.11 474.5-43.14" fill="#fe600d" transform="matrix(.01547 0 0 -.01682 -2.453 70.137)"/><path id="path5372" d="M2491.83 1729.12l19.6 364.69-305.87-121.55 286.27-243.14" fill="#febe0e" transform="matrix(.01547 0 0 -.01682 -2.453 70.137)"/><path id="path5374" d="M2727.11 1831.07l-215.68 262.74-19.6-364.69 235.28 101.95" fill="#fea009" transform="matrix(.01547 0 0 -.01682 -2.453 70.137)"/><path id="path5376" d="M2511.43 2093.81l266.66 31.37-50.98-294.11-215.68 262.74" fill="#fe7f02" transform="matrix(.01547 0 0 -.01682 -2.453 70.137)"/><path id="path5378" d="M2511.43 2093.81L2119.3 2513.4l86.26-541.14 305.87 121.55" fill="#fed10b" transform="matrix(.01547 0 0 -.01682 -2.453 70.137)"/><path id="path5380" d="M2511.43 2093.81l94.12 384.3-486.25 35.29 392.13-419.59" fill="#fed00a" transform="matrix(.01547 0 0 -.01682 -2.453 70.137)"/><path id="path5382" d="M2605.55 2478.11l172.54-352.93-266.66-31.37 94.12 384.3" fill="#feab07" transform="matrix(.01547 0 0 -.01682 -2.453 70.137)"/><path id="path5384" d="M2605.55 2478.11l200-90.2-90.2 286.27-109.8-196.07" fill="#feb80a" transform="matrix(.01547 0 0 -.01682 -2.453 70.137)"/><path id="path5386" d="M2805.55 2387.91l-27.46-262.73-172.54 352.93 200-90.2" fill="#feac07" transform="matrix(.01547 0 0 -.01682 -2.453 70.137)"/><path id="path5388" d="M2805.55 2387.91l396.06-599.98-423.52 337.25 27.46 262.73" fill="#fe841a" transform="matrix(.01547 0 0 -.01682 -2.453 70.137)"/><path id="path5390" d="M2805.55 2387.91l321.56 129.41 74.5-729.39-396.06 599.98" fill="#fea33b" transform="matrix(.01547 0 0 -.01682 -2.453 70.137)"/><path id="path5392" d="M2715.35 2674.18l411.76-156.86-321.56-129.41-90.2 286.27" fill="#fe9a0a" transform="matrix(.01547 0 0 -.01682 -2.453 70.137)"/><path id="path5394" d="M2715.35 2674.18l188.23 239.21 223.53-396.07-411.76 156.86" fill="#fdad33" transform="matrix(.01547 0 0 -.01682 -2.453 70.137)"/><path id="path5396" d="M2903.58 2913.39l-258.81 388.22-82.34-333.32 341.15-54.9" fill="#fef15a" transform="matrix(.01547 0 0 -.01682 -2.453 70.137)"/><path id="path5398" d="M2715.35 2674.18l-152.92 294.11 341.15-54.9-188.23-239.21" fill="#fdbc16" transform="matrix(.01547 0 0 -.01682 -2.453 70.137)"/><path id="path5400" d="M2605.55 2478.11l-43.12 490.18 152.92-294.11-109.8-196.07" fill="#ff9400" transform="matrix(.01547 0 0 -.01682 -2.453 70.137)"/><path id="path5402" d="M2605.55 2478.11l-411.75 317.63 368.63 172.55 43.12-490.18" fill="#fd6404" transform="matrix(.01547 0 0 -.01682 -2.453 70.137)"/><path id="path5404" d="M2193.8 2795.74l-74.5-282.34 486.25-35.29-411.75 317.63" fill="#fdb309" transform="matrix(.01547 0 0 -.01682 -2.453 70.137)"/><path id="path5406" d="M2193.8 2795.74l-203.91 380.38 129.41-662.72 74.5 282.34" fill="#fea105" transform="matrix(.01547 0 0 -.01682 -2.453 70.137)"/><path id="path5408" d="M2134.98 1407.56l-192.15 698.02 262.73-133.32-70.58-564.7" fill="#fe9a06" transform="matrix(.01547 0 0 -.01682 -2.453 70.137)"/><path id="path5410" d="M1723.23 1721.27l101.96 239.21-301.95 219.6 199.99-458.81" fill="#f63b0d" transform="matrix(.01547 0 0 -.01682 -2.453 70.137)"/><path id="path5412" d="M1825.19 1960.48l309.79-552.92-411.75 313.71 101.96 239.21" fill="#fd6102" transform="matrix(.01547 0 0 -.01682 -2.453 70.137)"/><path id="path5414" d="M1825.19 1960.48l117.64 145.1 192.15-698.02-309.79 552.92" fill="#fd7903" transform="matrix(.01547 0 0 -.01682 -2.453 70.137)"/><path id="path5416" d="M1825.19 1960.48l-294.11 776.45-7.84-556.85 301.95-219.6" fill="#f14232" transform="matrix(.01547 0 0 -.01682 -2.453 70.137)"/><path id="path5418" d="M1942.83 2105.58l176.47 407.82 86.26-541.14-262.73 133.32" fill="#feae07" transform="matrix(.01547 0 0 -.01682 -2.453 70.137)"/><path id="path5420" d="M1523.24 1364.43l7.84-584.301 200-152.93-207.84 737.231" fill="#fa982f" transform="matrix(.01547 0 0 -.01682 -2.453 70.137)"/><path id="path5422" d="M1523.24 1364.43l-286.26-298.03 294.1-286.271-7.84 584.301" fill="#f4430d" transform="matrix(.01547 0 0 -.01682 -2.453 70.137)"/><path id="path5424" d="M1523.24 1364.43l43.14 341.16-333.32 82.34 290.18-423.5" fill="#ff8f12" transform="matrix(.01547 0 0 -.01682 -2.453 70.137)"/><path id="path5426" d="M1523.24 1364.43l-345.08 70.59 58.82-368.62 286.26 298.03" fill="#f95312" transform="matrix(.01547 0 0 -.01682 -2.453 70.137)"/><path id="path5428" d="M1178.16 1435.02l54.9 352.91 290.18-423.5-345.08 70.59" fill="#ff860b" transform="matrix(.01547 0 0 -.01682 -2.453 70.137)"/><path id="path5430" d="M1178.16 1435.02l-129.41 176.46 184.31 176.45-54.9-352.91" fill="#fcb356" transform="matrix(.01547 0 0 -.01682 -2.453 70.137)"/><path id="path5432" d="M1048.75 1611.48l188.23-545.08-58.82 368.62-129.41 176.46" fill="#fa9e5d" transform="matrix(.01547 0 0 -.01682 -2.453 70.137)"/><path id="path5434" d="M1566.38 1705.59l407.82-592.13-450.96 250.97 43.14 341.16" fill="#fd8b06" transform="matrix(.01547 0 0 -.01682 -2.453 70.137)"/><path id="path5436" d="M1566.38 1705.59l156.85 15.68 250.97-607.81-407.82 592.13" fill="#ff6b06" transform="matrix(.01547 0 0 -.01682 -2.453 70.137)"/><path id="path5438" d="M1566.38 1705.59l-43.14 474.49 199.99-458.81-156.85-15.68" fill="#fd860f" transform="matrix(.01547 0 0 -.01682 -2.453 70.137)"/><path id="path5440" d="M1566.38 1705.59l-286.27 337.23-47.05-254.89 333.32-82.34" fill="#feaf66" transform="matrix(.01547 0 0 -.01682 -2.453 70.137)"/><path id="path5442" d="M1280.11 2042.82l243.13 137.26 43.14-474.49-286.27 337.23" fill="#fdc14c" transform="matrix(.01547 0 0 -.01682 -2.453 70.137)"/><path id="path5444" d="M1280.11 2042.82l33.23 488.23 209.9-350.97-243.13-137.26" fill="#fef0b4" transform="matrix(.01547 0 0 -.01682 -2.453 70.137)"/><path id="path5446" d="M1942.83 2105.58l-411.75 631.35 294.11-776.45 117.64 145.1" fill="#fc6517" transform="matrix(.01547 0 0 -.01682 -2.453 70.137)"/><path id="path5448" d="M1942.83 2105.58l47.06 1070.54 129.41-662.72-176.47-407.82" fill="#fe9806" transform="matrix(.01547 0 0 -.01682 -2.453 70.137)"/><path id="path5450" d="M2193.8 2795.74l-43.13 1141.14-160.78-760.76 203.91-380.38" fill="#fe9832" transform="matrix(.01547 0 0 -.01682 -2.453 70.137)"/><path id="path5452" d="M2562.43 2968.29l-231.37 333.32-137.26-505.87 368.63 172.55" fill="#fd954b" transform="matrix(.01547 0 0 -.01682 -2.453 70.137)"/><path id="path5454" d="M2331.06 3301.61l-180.39 635.27 43.13-1141.14 137.26 505.87" fill="#feaa7b" transform="matrix(.01547 0 0 -.01682 -2.453 70.137)"/><path id="path5456" d="M1989.89 3176.12l-112.84 299.83 273.62 460.93-160.78-760.76" fill="#ffb868" transform="matrix(.01547 0 0 -.01682 -2.453 70.137)"/><path id="path5458" d="M1989.89 3176.12l-196.07-458.8 149.01-611.74 47.06 1070.54" fill="#fe8715" transform="matrix(.01547 0 0 -.01682 -2.453 70.137)"/><path id="path5460" d="M1793.82 2717.32l-262.74 19.61 411.75-631.35-149.01 611.74" fill="#fc8d42" transform="matrix(.01547 0 0 -.01682 -2.453 70.137)"/><path id="path5462" d="M1793.82 2717.32l-180.39 399.98-82.35-380.37 262.74-19.61" fill="#faa98e" transform="matrix(.01547 0 0 -.01682 -2.453 70.137)"/><path id="path5464" d="M1793.82 2717.32l83.23 758.63 112.84-299.83-196.07-458.8" fill="#fda64e" transform="matrix(.01547 0 0 -.01682 -2.453 70.137)"/><path id="path5466" d="M1793.82 2717.32l-180.39 399.98 263.62 358.65" fill="#fdd1a8" transform="matrix(.01547 0 0 -.01682 -2.453 70.137)"/><path id="path5468" d="M1048.75 1611.48v494.1l184.31-317.65-184.31-176.45" fill="#fdc246" transform="matrix(.01547 0 0 -.01682 -2.453 70.137)"/><path id="path5470" d="M1280.11 2042.82l-231.36 62.76 184.31-317.65 47.05 254.89" fill="#fbd378" transform="matrix(.01547 0 0 -.01682 -2.453 70.137)"/></g></g></g><g id="layer2"><g id="g5067" opacity=".75"><g id="Layer_3"><path id="polygon4914" d="M62.2 144L0 108V36L62.2 0l62.2 36v72z" transform="translate(17.124 30.684) scale(.2304)"/></g><g id="Layer_4" transform="translate(17.124 30.684) scale(.2304)"><path id="path4942" d="M8.6 57.6s3.4 5.8 9.6 10.6c2.6 2 7.5 4.8 14.3 6.4 9.1 2.2 21.4 3.7 21.4 3.7L54 86s-2.8 1-7.9 4.5c-5.1 3.5-6.7 5.3-6.7 5.3v8.2H58s3.6-3.9 9.4-4c5.8-.1 9.1 4 9.1 4h18.7v-7.1s-1.8-2.8-7.1-5.9c-5.3-3.2-8.2-4.9-8.2-4.9v-7.8l16.6-14.6h17.1v-9.2H49.3l-.2 3H8.6v.1z" class="st2" fill="#bd8f2d"/><circle id="circle4944" r="2.2" cy="76.8" cx="12.1" class="st3" fill="none" stroke="#bd8f2d" stroke-width=".8" stroke-miterlimit="10"/><circle id="circle4946" r="2.2" cy="83.3" cx="16.6" class="st3" fill="none" stroke="#bd8f2d" stroke-width=".8" stroke-miterlimit="10"/><circle id="circle4948" r="2.2" cy="89.4" cx="22.1" class="st3" fill="none" stroke="#bd8f2d" stroke-width=".8" stroke-miterlimit="10"/><path id="polyline4950" class="st3" fill="none" stroke="#bd8f2d" stroke-width=".8" stroke-miterlimit="10" d="M22.1 91.6v12.3l54.5 31.5"/><path id="polyline4952" class="st3" fill="none" stroke="#bd8f2d" stroke-width=".8" stroke-miterlimit="10" d="M16.6 85.6v19.8l55.3 32.8"/><path id="polyline4954" class="st3" fill="none" stroke="#bd8f2d" stroke-width=".8" stroke-miterlimit="10" d="M12.1 79.1v29.8L67 141"/><circle id="circle4962" r="2.2" cy="38.6" cx="107.2" class="st3" fill="none" stroke="#bd8f2d" stroke-width=".8" stroke-miterlimit="10"/><circle id="circle4964" r="2.2" cy="36" cx="95.8" class="st3" fill="none" stroke="#bd8f2d" stroke-width=".8" stroke-miterlimit="10"/><path id="line4966" class="st3" fill="none" stroke="#bd8f2d" stroke-width=".8" stroke-miterlimit="10" d="M93.9 35.1L49 9.1"/><path id="line4968" class="st3" fill="none" stroke="#bd8f2d" stroke-width=".8" stroke-miterlimit="10" d="M105.6 37.1L53.3 6.2"/><circle id="circle4974" r="2.2" cy="68.2" cx="103.4" class="st3" fill="none" stroke="#bd8f2d" stroke-width=".8" stroke-miterlimit="10"/><circle id="circle4976" r="2.2" cy="73.4" cx="93.9" class="st3" fill="none" stroke="#bd8f2d" stroke-width=".8" stroke-miterlimit="10"/><circle id="circle4978" r="2.2" cy="81.1" cx="87.6" class="st3" fill="none" stroke="#bd8f2d" stroke-width=".8" stroke-miterlimit="10"/><circle id="circle4980" r="2.2" cy="87.8" cx="93.9" class="st3" fill="none" stroke="#bd8f2d" stroke-width=".8" stroke-miterlimit="10"/><circle id="circle4982" r="2.2" cy="92.8" cx="103.4" class="st3" fill="none" stroke="#bd8f2d" stroke-width=".8" stroke-miterlimit="10"/><path id="line4984" class="st3" fill="none" stroke="#bd8f2d" stroke-width=".8" stroke-miterlimit="10" d="M105.6 68.2h18.8"/><path id="line4986" class="st3" fill="none" stroke="#bd8f2d" stroke-width=".8" stroke-miterlimit="10" d="M96.2 73.4h28.2"/><path id="line4988" class="st3" fill="none" stroke="#bd8f2d" stroke-width=".8" stroke-miterlimit="10" d="M89.9 81.1h34.5"/><path id="line4990" class="st3" fill="none" stroke="#bd8f2d" stroke-width=".8" stroke-miterlimit="10" d="M96.2 87.8h28.2"/><path id="line4992" class="st3" fill="none" stroke="#bd8f2d" stroke-width=".8" stroke-miterlimit="10" d="M105.6 92.8h18.8"/><circle id="circle4994" r="2.2" cy="51.7" cx="12.7" class="st3" fill="none" stroke="#bd8f2d" stroke-width=".8" stroke-miterlimit="10"/><circle id="circle4996" r="2.2" cy="51.7" cx="21.1" class="st3" fill="none" stroke="#bd8f2d" stroke-width=".8" stroke-miterlimit="10"/><circle id="circle4998" r="2.2" cy="51.7" cx="29.2" class="st3" fill="none" stroke="#bd8f2d" stroke-width=".8" stroke-miterlimit="10"/><circle id="circle5000" r="2.2" cy="51.7" cx="37.6" class="st3" fill="none" stroke="#bd8f2d" stroke-width=".8" stroke-miterlimit="10"/><circle id="circle5002" r="2.2" cy="51.7" cx="45.7" class="st3" fill="none" stroke="#bd8f2d" stroke-width=".8" stroke-miterlimit="10"/><path id="polyline5004" class="st4" fill="none" stroke="#bc8f2d" stroke-miterlimit="10" d="M45.7 49.5v-4.1h45.4v-7.7L43.8 12.4"/><path id="line5008" class="st4" fill="none" stroke="#bc8f2d" stroke-miterlimit="10" d="M12.7 49.5V30"/><path id="polyline5010" class="st4" fill="none" stroke="#bc8f2d" stroke-miterlimit="10" d="M37.6 49.5v-8.7h47.1v-1.7L39 15"/><path id="polyline5012" class="st4" fill="none" stroke="#bc8f2d" stroke-miterlimit="10" d="M29.2 49.5V36l41.4.3-38.3-18.1"/><path id="polyline5014" class="st4" fill="none" stroke="#bc8f2d" stroke-miterlimit="10" d="M21.1 49.5V31.9h24.6l-19.6-9.5"/><circle id="circle5016" r="2.2" cy="112.7" cx="49.3" class="st3" fill="none" stroke="#bd8f2d" stroke-width=".8" stroke-miterlimit="10"/><circle id="circle5018" r="2.2" cy="111.9" cx="57.8" class="st3" fill="none" stroke="#bd8f2d" stroke-width=".8" stroke-miterlimit="10"/><path id="line5020" class="st3" fill="none" stroke="#bd8f2d" stroke-width=".8" stroke-miterlimit="10" d="M51.1 113.9l29.9 18"/><path id="line5022" class="st3" fill="none" stroke="#bd8f2d" stroke-width=".8" stroke-miterlimit="10" d="M59.8 112.9l26.5 15.6"/><circle id="circle5024" r="2.2" cy="99.6" cx="111.4" class="st3" fill="none" stroke="#bd8f2d" stroke-width=".8" stroke-miterlimit="10"/><path id="line5026" class="st3" fill="none" stroke="#bd8f2d" stroke-width=".8" stroke-miterlimit="10" d="M113.7 99.6h10.7"/><circle id="circle5028" r="2.2" cy="105.5" cx="105.6" class="st3" fill="none" stroke="#bd8f2d" stroke-width=".8" stroke-miterlimit="10"/><path id="line5030" class="st3" fill="none" stroke="#bd8f2d" stroke-width=".8" stroke-miterlimit="10" d="M107.9 105.5h16.5"/><circle id="circle5032" r="2.2" cy="110.9" cx="102.4" class="st3" fill="none" stroke="#bd8f2d" stroke-width=".8" stroke-miterlimit="10"/><circle id="circle5034" r="2.2" cy="112.9" cx="95.8" class="st3" fill="none" stroke="#bd8f2d" stroke-width=".8" stroke-miterlimit="10"/><circle id="circle5036" r="2.2" cy="110" cx="68.3" class="st3" fill="none" stroke="#bd8f2d" stroke-width=".8" stroke-miterlimit="10"/><path id="line5038" class="st5" fill="none" stroke="#bd8f2d" stroke-width=".741" stroke-miterlimit="10" d="M102.4 113.1v7.1"/><path id="line5040" class="st6" fill="none" stroke="#bd8f2d" stroke-width=".764" stroke-miterlimit="10" d="M95.8 115.2v8.3"/><path id="line5042" class="st3" fill="none" stroke="#bd8f2d" stroke-width=".8" stroke-miterlimit="10" d="M69.9 111.4l21.7 14.5"/></g><path id="rect5044" d="M59.9 65.6h4.7V90h-4.7z" transform="translate(17.124 30.684) scale(.2304)"/><path id="rect5046" d="M69.5 65.6h4.7V90h-4.7z" transform="translate(17.124 30.684) scale(.2304)"/><path id="polygon5048" class="st7" fill="#bc8f2d" d="M.1 39L64.6 1.5 62.2 0 0 36z" transform="translate(17.124 30.684) scale(.2304)"/><path id="polygon5050" class="st7" fill="#bc8f2d" d="M62.2 144l62.2-36-.4-3.1-64.9 37.3z" transform="translate(17.124 30.684) scale(.2304)"/><path id="polygon5052" class="st7" fill="#bc8f2d" d="M124.4 36L62.2 0l-2.7 1.6 64.9 37.8z" transform="translate(17.124 30.684) scale(.2304)"/><path id="polygon5054" class="st7" fill="url(#linearGradient6156)" d="M2.4 109.3V34.6L0 36v72z" transform="translate(17.124 30.684) scale(.2304)"/><path id="polygon5056" class="st7" fill="#bc8f2d" d="M121.5 34.3v74.9l2.9-1.2V36z" transform="translate(17.124 30.684) scale(.2304)"/><path id="polygon5058" class="st7" fill="#bc8f2d" d="M0 108l62.2 36 2.6-1.7L.2 104.8z" transform="translate(17.124 30.684) scale(.2304)"/></g></g><style id="style4911">.st0{display:none}.st1{display:inline;fill:none;stroke:#bd8f2d;stroke-width:.5;stroke-miterlimit:10}.st2{fill:#bd8f2d}.st3,.st4,.st5,.st6{fill:none;stroke-miterlimit:10}.st3{stroke-width:.8;stroke:#bd8f2d}.st4,.st5,.st6{stroke:#bc8f2d}.st5,.st6{stroke:#bd8f2d;stroke-width:.7407}.st6{stroke-width:.7644}.st7{fill:#bc8f2d}</style></svg>