<svg xmlns="http://www.w3.org/2000/svg" width="300" height="68.679"><defs><clipPath id="a"><path d="M32.346 215.132h90.817v20.791H32.346v-20.791z"/></clipPath></defs><g clip-path="url(#a)" transform="matrix(3.30335 0 0 -3.30335 -106.85 779.337)"><path d="M44.015 224.413c-.352-.264-2.182-1.672-5.139-1.672-3.749 0-6.53 2.693-6.53 6.547 0 3.432 2.288 6.635 6.688 6.635 2.253 0 3.731-.72 4.647-1.619l-1.25-1.637A5.43 5.43 0 0 1 39 233.882c-2.64 0-4.329-2.035-4.329-4.559 0-3.107 2.094-4.61 4.276-4.61 1.743 0 2.8.703 2.975.826v2.376h-3.15v1.883h5.244v-5.385zM53.132 227.564v.035c0 1.637-1.18 2.957-2.851 2.957-1.707 0-2.798-1.303-2.798-2.922v-.035c0-1.62 1.179-2.94 2.833-2.94 1.725 0 2.816 1.303 2.816 2.905m2.13.035c0-2.64-2.112-4.787-4.981-4.787-2.834 0-4.928 2.112-4.928 4.752v.035c0 2.658 2.112 4.822 4.963 4.822 2.85 0 4.946-2.13 4.946-4.787v-.035zM58.729 222.952h-2.13V235.8h2.13v-12.848zM67.687 227.599c0 2.024-1.443 2.957-2.746 2.957-1.267 0-2.727-.88-2.727-2.94 0-1.591 1.02-2.974 2.763-2.974 1.68 0 2.71 1.214 2.71 2.957m2.094-4.646h-2.024v1.232c-.545-.845-1.795-1.426-3.097-1.426-2.446 0-4.594 1.742-4.594 4.822v.053c0 2.253 1.338 4.805 4.682 4.805 1.302 0 2.446-.546 2.904-1.25v4.612h2.129v-12.848zM78.335 225.645c0-1.866-1.513-2.869-3.45-2.869-2.252 0-3.766 1.04-3.907 1.197l.916 1.514c.968-.669 2.04-.986 2.992-.986.88 0 1.284.387 1.284 1.021 0 .686-.808.9-1.9 1.302-1.443.531-2.87 1.003-2.87 2.728v.035c0 1.76 1.497 2.852 3.345 2.852 1.16 0 2.446-.317 3.432-.969l-.81-1.566c-.897.546-1.865.81-2.534.81-.81 0-1.303-.335-1.303-.933 0-.775 1.268-1.072 1.954-1.32 1.356-.49 2.85-1.074 2.85-2.816M97.749 233.209h-2.13v2.059h2.13v-2.059zM97.749 222.948h-2.13v9.293h2.13v-9.293zM105.58 223.423c-.087-.059-.914-.634-2.357-.634-1.848 0-2.887.898-2.887 2.904v4.858H98.98v1.69h1.373v3.027h2.112v-3.027h2.675v-1.69h-2.675v-4.506c0-.51.052-.844.317-1.108.21-.212.51-.317.88-.317.545 0 1.038.176 1.284.3l.634-1.497zM114.768 222.948h-2.13v4.946c0 1.53-.263 2.64-1.812 2.64-1.85 0-1.99-1.716-1.99-2.904v-4.682h-2.13v12.848h2.13v-4.506c.413.54 1.233 1.144 2.465 1.144 1.267 0 2.037-.383 2.569-.915.912-.911.898-2.393.898-2.94v-5.631zM123.163 225.64c0-1.865-1.514-2.868-3.45-2.868-2.252 0-3.766 1.039-3.907 1.197l.915 1.514c.968-.67 2.042-.986 2.992-.986.88 0 1.285.387 1.285 1.02 0 .687-.808.9-1.901 1.303-1.442.53-2.868 1.003-2.868 2.728v.035c0 1.76 1.496 2.852 3.344 2.852 1.16 0 2.446-.317 3.432-.97l-.81-1.565c-.898.546-1.866.81-2.534.81-.81 0-1.303-.335-1.303-.933 0-.774 1.268-1.072 1.954-1.32 1.356-.491 2.85-1.074 2.85-2.816M93.769 222.95h-2.13v4.944c0 1.532-.264 2.64-1.812 2.64-1.849 0-1.989-1.716-1.989-2.904v-4.68h-2.13v4.944c0 1.532-.317 2.64-1.865 2.64-1.672 0-1.936-1.494-1.936-2.64v-4.945h-2.13v9.293h2.024v-1.127c.5.698 1.327 1.338 2.64 1.338 1.417 0 2.267-.565 2.781-1.549.47.637 1.425 1.531 3.08 1.531 1.267 0 2.038-.383 2.569-.915.912-.912.898-2.394.898-2.939v-5.632zM59.423 216.664c0-.467-.04-1.523-1.421-1.523-1.367 0-1.403 1.146-1.403 1.436v1.835h.763v-1.854c0-.507.23-.754.649-.754.653 0 .648.553.648.731v1.877h.764v-1.748zM63.3 215.192h-.597l-1.504 1.983v-1.983h-.718v3.22h.653l1.468-1.937v1.937h.699v-3.22zM65.168 215.192h-.764v3.22h.764v-3.22zM69.17 218.412l-1.27-3.22h-.685l-1.274 3.22h.828l.805-2.203.814 2.203h.782zM72.303 215.192h-2.36v3.22h2.323v-.612h-1.564v-.68h1.37v-.608h-1.37v-.699h1.6v-.62zM75.182 217.354c0 .427-.396.46-.685.46h-.4v-.92h.367c.293 0 .718.007.718.46m.957-2.162h-.86l-.746 1.136h-.437v-1.136h-.759v3.22h1.242c.251 0 .737-.005 1.026-.294.148-.148.294-.369.294-.755a.89.89 0 0 0-.63-.9l.87-1.27zM79.212 216.135c0-.658-.504-1.003-1.196-1.003-.667 0-1.142.252-1.28.364l.296.538c.117-.058.51-.285.984-.285.347 0 .474.136.474.34 0 .283-.352.328-.612.41-.425.133-1.058.326-1.058 1.016 0 .584.467.952 1.182.952.545 0 1.019-.223 1.118-.308l-.253-.543c-.048.023-.455.235-.874.235-.313 0-.455-.104-.455-.313 0-.228.307-.312.67-.419.486-.142 1.004-.34 1.004-.984M80.941 215.192h-.764v3.22h.764v-3.22zM84.502 217.8h-.998v-2.607h-.764v2.608h-.998v.612h2.76v-.612zM88.223 218.412l-1.196-1.94v-1.28h-.764v1.28l-1.209 1.94h.892l.722-1.224.76 1.224h.795zM93.512 216.793v.01c0 .575-.39.993-.934.993-.56 0-.924-.416-.924-.984v-.01c0-.556.374-.993.933-.993s.925.42.925.984m.782.01c0-.916-.722-1.666-1.716-1.666-.993 0-1.706.741-1.706 1.656v.01c0 .915.722 1.664 1.715 1.664.994 0 1.707-.74 1.707-1.655v-.01zM97.445 217.8h-1.504v-.735h1.297v-.607h-1.297v-1.265h-.764v3.22h2.268v-.612zM102.6 215.192h-2.314v3.22h.764v-2.599h1.55v-.62zM105.793 216.793v.01c0 .575-.39.993-.934.993-.56 0-.924-.416-.924-.984v-.01c0-.556.374-.993.933-.993.56 0 .925.42.925.984m.782.01c0-.916-.722-1.666-1.716-1.666-.993 0-1.706.741-1.706 1.656v.01c0 .915.722 1.664 1.715 1.664.994 0 1.707-.74 1.707-1.655v-.01zM110.278 215.192h-.598l-1.504 1.983v-1.983h-.718v3.22h.653l1.468-1.937v1.937h.699v-3.22zM113.616 216.789c0 .294-.087.57-.267.75-.257.257-.566.267-.763.267h-.447v-2.001h.414c.251 0 .555.016.801.262.168.168.262.414.262.722m.8.014c0-.44-.15-.846-.437-1.132-.4-.4-.894-.478-1.467-.478h-1.132v3.22h1.325c.498 0 .934-.138 1.256-.46.28-.28.455-.685.455-1.15M117.775 216.793v.01c0 .575-.39.993-.934.993-.56 0-.924-.416-.924-.984v-.01c0-.556.374-.993.933-.993s.925.42.925.984m.782.01c0-.916-.722-1.666-1.716-1.666-.993 0-1.706.741-1.706 1.656v.01c0 .915.722 1.664 1.715 1.664.994 0 1.707-.74 1.707-1.655v-.01zM122.26 215.192h-.598l-1.504 1.983v-1.983h-.718v3.22h.653l1.468-1.937v1.937h.699v-3.22z" fill="#cba569"/></g></svg>